:SAMPLES-PER-SECOND 30
:FULLY-SPECIFIED
:DEGREES
1534
root  7.41164 38.9671 -24.9025 176.359 -78.2472 178.304
RightUpLeg  0.468967 -8.50535 2.39826
RightLeg  17.2942 -0.820446 1.40776
RightFoot  -13.4975 -0.185804 -5.02028
RightToes  -8.14909e-010 0 -3.6325e-017
Spine  7.83411 2.89656 17.0092
Spine1  4.26197 6.35948 -9.30548
HEad  -16.6642 17.0199 -9.34813
LeftShoulder1  -0.551054 4.96059 -31.679
LeftArm  2.84332 10.9043 -44.3369
LeftForeArm  22.3131 -16.311 -6.38732
LeftHand  0.0534462 8.12 3.89726
RightShoulder  -0.664634 -5.46309 27.24
RightArm  12.3212 11.9413 46.8452
RightForeArm  11.8669 12.1403 5.92884
RightHand  -0.141459 5.07606 -1.87268
LeftUpLeg  -17.2472 -7.97181 2.13452
LeftLeg  32.1716 0.0813985 0.406847
LeftFoot  -0.768186 0.217026 -2.28904
LeftToes  1.648e-009 -9.21574e-011 2.55256e-011
1535
root  6.59284 39.0165 -25.2739 176.772 -77.9353 177.9
RightUpLeg  2.68754 -8.31941 2.42565
RightLeg  15.792 -0.718307 1.46083
RightFoot  -14.0998 -0.217463 -5.07557
RightToes  -8.14909e-010 0 -3.6325e-017
Spine  7.56537 3.05406 16.6973
Spine1  4.3758 6.44367 -10.0195
HEad  -17.4393 18.0076 -9.13382
LeftShoulder1  -0.524836 4.9081 -31.2303
LeftArm  3.04609 10.5439 -45.2311
LeftForeArm  22.5254 -16.3438 -6.39813
LeftHand  0.0366627 7.67369 3.7217
RightShoulder  -0.652908 -5.43715 27.0721
RightArm  14.7377 14.3708 47.9499
RightForeArm  10.2959 14.1321 5.85418
RightHand  -0.168006 5.52988 -2.10664
LeftUpLeg  -17.069 -7.56223 1.50044
LeftLeg  22.7519 -1.43671 -0.317136
LeftFoot  -0.449329 0.281747 -2.9352
LeftToes  1.648e-009 -9.21574e-011 2.55256e-011
1536
root  5.79738 39.0415 -25.663 176.764 -77.6908 177.948
RightUpLeg  4.89458 -8.00479 2.6111
RightLeg  14.1626 -0.713785 1.47332
RightFoot  -14.5372 -0.234699 -4.89427
RightToes  -8.14909e-010 0 -3.6325e-017
Spine  7.37658 3.20745 15.6653
Spine1  4.48967 6.35351 -9.80451
HEad  -18.0979 18.4782 -9.42384
LeftShoulder1  -0.510136 4.86499 -31.3265
LeftArm  2.98672 10.2269 -45.6512
LeftForeArm  23.3734 -16.3376 -6.37396
LeftHand  0.0241636 7.33321 3.52284
RightShoulder  -0.619861 -5.35002 26.8576
RightArm  17.2696 16.4208 49.0719
RightForeArm  8.69534 16.0165 5.63522
RightHand  -0.155925 6.07562 -1.90818
LeftUpLeg  -16.64 -4.55154 0.308254
LeftLeg  13.5207 -4.3706 -0.767293
LeftFoot  -0.777223 0.370808 -3.95059
LeftToes  1.648e-009 -9.21574e-011 2.55256e-011
1537
root  4.98803 39.0597 -26.042 177.41 -77.3408 177.362
RightUpLeg  7.05415 -7.77303 2.58009
RightLeg  12.6304 -0.504133 1.52611
RightFoot  -15.0819 -0.254953 -4.675
RightToes  -8.14909e-010 0 -3.6325e-017
Spine  7.32903 3.2717 14.7299
Spine1  4.5229 6.36548 -10.1417
HEad  -18.3089 18.8083 -9.30466
LeftShoulder1  -0.4802 4.79436 -31.0605
LeftArm  3.44155 10.0762 -45.9343
LeftForeArm  23.5278 -16.4365 -6.37398
LeftHand  0.00929614 6.82063 3.41186
RightShoulder  -0.604807 -5.30054 26.926
RightArm  19.2147 17.8698 50.2222
RightForeArm  6.92222 17.6187 5.35667
RightHand  -0.196307 6.35535 -2.27665
LeftUpLeg  -15.7291 0.121062 -1.65021
LeftLeg  4.69482 -4.74484 -0.365916
LeftFoot  -0.363468 0.546147 -5.65844
LeftToes  1.648e-009 -9.21574e-011 2.55256e-011
1538
root  4.0933 38.9922 -26.3959 177.897 -77.0355 176.79
RightUpLeg  9.12645 -7.94005 2.29138
RightLeg  11.9309 0.0502042 1.73958
RightFoot  -15.994 -0.298652 -4.69827
RightToes  -8.14909e-010 0 -3.6325e-017
Spine  6.89783 3.33485 13.7892
Spine1  5.1773 6.36084 -10.1121
HEad  -18.8567 18.646 -9.16281
LeftShoulder1  -0.52445 4.89982 -31.4252
LeftArm  4.50893 9.4892 -45.4658
LeftForeArm  22.9333 -16.5266 -6.4739
LeftHand  0.0348036 7.75577 3.5199
RightShoulder  -0.571987 -5.21134 26.7372
RightArm  20.2319 18.6558 51.6418
RightForeArm  5.72813 18.7936 5.11799
RightHand  -0.259148 6.601 -2.84923
LeftUpLeg  -14.7621 0.746618 -2.4352
LeftLeg  -1.68724 2.39234 -1.11741
LeftFoot  -0.0882912 0.6374 -6.46545
LeftToes  1.648e-009 -9.21574e-011 2.55256e-011
